<?xml version="1.0" encoding="UTF-8"?>
<!DOCTYPE svg PUBLIC "-//W3C//DTD SVG 1.1//EN" "http://www.w3.org/Graphics/SVG/1.1/DTD/svg11.dtd">
<svg version="1.1" xmlns="http://www.w3.org/2000/svg" xmlns:xlink="http://www.w3.org/1999/xlink" x="0px" y="0px" width="1400" height="2000" viewBox="0, 0, 1400, 2000">
  <g id="Logos">
    <path d="M591.306,728.451 C588.669,728.451 586.531,726.313 586.531,723.676 C586.531,721.038 588.669,718.9 591.306,718.9 C593.943,718.9 596.082,721.038 596.082,723.676 C596.082,726.313 593.943,728.451 591.306,728.451 M581.736,738.006 C579.098,738.006 576.96,735.869 576.96,733.231 C576.96,730.593 579.098,728.455 581.736,728.455 C584.373,728.455 586.511,730.593 586.511,733.231 C586.511,735.869 584.373,738.006 581.736,738.006 M572.173,728.455 C569.536,728.455 567.398,726.317 567.398,723.679 C567.398,721.042 569.536,718.904 572.173,718.904 C574.81,718.904 576.948,721.042 576.948,723.679 C576.948,726.317 574.81,728.455 572.173,728.455 M563.26,753.809 C558.337,753.809 554.347,749.818 554.347,744.896 C554.347,739.974 558.337,735.984 563.26,735.984 C568.183,735.984 572.173,739.974 572.173,744.896 C572.173,749.818 568.183,753.809 563.26,753.809 M581.674,709.326 C584.312,709.326 586.45,711.464 586.45,714.101 C586.45,716.739 584.312,718.877 581.674,718.877 C579.037,718.877 576.899,716.739 576.899,714.101 C576.899,711.464 579.037,709.326 581.674,709.326 M524.806,755.23 C518.824,755.23 513.974,750.38 513.974,744.398 C513.974,738.416 518.824,733.566 524.806,733.566 C530.789,733.566 535.638,738.416 535.638,744.398 C535.638,750.38 530.789,755.23 524.806,755.23 M506.784,731.865 C501.487,731.865 497.192,727.571 497.192,722.273 C497.192,716.975 501.487,712.681 506.784,712.681 C512.082,712.681 516.377,716.975 516.377,722.273 C516.377,727.571 512.082,731.865 506.784,731.865 M601.149,730.468 C599.368,724.775 597.423,716.317 594.148,711.433 C590.866,706.539 579.799,701.374 570.517,703.775 C566.516,704.81 563.605,707.578 559.796,708.588 C552.221,710.597 539.123,710.555 531.134,708.807 C526.92,707.885 524.204,705.654 520.194,704.212 C510.88,700.865 498.036,706.545 494.813,711.87 C492.026,716.477 490.205,724.644 488.468,730.249 C486.681,736.014 484.678,742.472 482.998,749.503 C481.721,754.847 479.838,762.949 479.716,770.945 C479.561,781.067 479.589,793.933 488.031,794.794 L489.124,794.794 C493.75,794.266 496.894,791.619 499.846,788.668 C506.916,781.598 512.401,773.185 521.507,768.758 C528.017,765.591 535.512,765.694 544.262,765.694 C552.384,765.694 561.737,765.684 567.673,768.32 C573.749,771.018 578.666,776.326 582.989,781.229 C587.196,786 593.181,793.149 600.055,794.794 L601.368,794.794 C608.997,794.444 609.683,783.064 609.683,774.008 C609.683,756.99 605.227,743.5 601.149,730.468" fill="#FFFFFF"/>
  </g>
  <defs/>
</svg>
